<svg width="10" height="10" viewBox="0 0 10 10" fill="none" xmlns="http://www.w3.org/2000/svg">
<path d="M10 7.89773C10 8.02557 9.97633 8.19247 9.92898 8.39844C9.88163 8.6044 9.83191 8.76657 9.77983 8.88494C9.6804 9.12169 9.39157 9.37263 8.91335 9.63778C8.46828 9.87926 8.02794 10 7.59233 10C7.46449 10 7.3402 9.99171 7.21946 9.97514C7.09872 9.95857 6.96259 9.92898 6.81108 9.88636C6.65956 9.84375 6.54711 9.80942 6.47372 9.78338C6.40033 9.75734 6.26894 9.70881 6.07955 9.63778C5.89015 9.56676 5.77415 9.52415 5.73153 9.50994C5.26752 9.34422 4.85322 9.14773 4.48864 8.92045C3.88258 8.5464 3.25639 8.03622 2.61009 7.38991C1.96378 6.74361 1.4536 6.11742 1.07955 5.51136C0.852273 5.14678 0.655777 4.73248 0.490057 4.26847C0.475852 4.22585 0.433239 4.10985 0.362216 3.92045C0.291193 3.73106 0.242661 3.59967 0.216619 3.52628C0.190578 3.45289 0.15625 3.34044 0.113636 3.18892C0.0710227 3.03741 0.0414299 2.90128 0.024858 2.78054C0.00828599 2.6598 0 2.53551 0 2.40767C0 1.97206 0.120739 1.53172 0.362216 1.08665C0.627367 0.608428 0.878314 0.319602 1.11506 0.22017C1.23343 0.168087 1.3956 0.118371 1.60156 0.0710227C1.80753 0.0236742 1.97443 0 2.10227 0C2.16856 0 2.21828 0.00710227 2.25142 0.0213068C2.33665 0.0497159 2.46212 0.22964 2.62784 0.56108C2.67992 0.651042 2.75095 0.778883 2.84091 0.944602C2.93087 1.11032 3.01373 1.26065 3.08949 1.3956C3.16525 1.53054 3.23864 1.6572 3.30966 1.77557C3.32386 1.79451 3.36529 1.85369 3.43395 1.95312C3.5026 2.05256 3.5535 2.1366 3.58665 2.20526C3.61979 2.27391 3.63636 2.34138 3.63636 2.40767C3.63636 2.50237 3.56889 2.62074 3.43395 2.76278C3.29901 2.90483 3.15223 3.03504 2.99361 3.15341C2.83499 3.27178 2.68821 3.39725 2.55327 3.52983C2.41832 3.66241 2.35085 3.77131 2.35085 3.85653C2.35085 3.89915 2.36269 3.95241 2.38636 4.01634C2.41004 4.08026 2.43016 4.12879 2.44673 4.16193C2.4633 4.19508 2.49645 4.25189 2.54616 4.33239C2.59588 4.41288 2.62311 4.45786 2.62784 4.46733C2.98769 5.116 3.39962 5.67235 3.86364 6.13636C4.32765 6.60038 4.884 7.01231 5.53267 7.37216C5.54214 7.37689 5.58712 7.40412 5.66761 7.45384C5.74811 7.50355 5.80492 7.5367 5.83807 7.55327C5.87121 7.56984 5.91974 7.58996 5.98366 7.61364C6.04759 7.63731 6.10085 7.64915 6.14347 7.64915C6.22869 7.64915 6.33759 7.58168 6.47017 7.44673C6.60275 7.31179 6.72822 7.16501 6.84659 7.00639C6.96496 6.84777 7.09517 6.70099 7.23722 6.56605C7.37926 6.43111 7.49763 6.36364 7.59233 6.36364C7.65862 6.36364 7.72609 6.38021 7.79474 6.41335C7.8634 6.4465 7.94744 6.4974 8.04688 6.56605C8.14631 6.63471 8.20549 6.67614 8.22443 6.69034C8.3428 6.76136 8.46946 6.83475 8.6044 6.91051C8.73935 6.98627 8.88968 7.06913 9.0554 7.15909C9.22112 7.24905 9.34896 7.32008 9.43892 7.37216C9.77036 7.53788 9.95028 7.66335 9.97869 7.74858C9.9929 7.78172 10 7.83144 10 7.89773Z" fill="white"/>
</svg>
