<svg width="10" height="17" viewBox="0 0 10 17" fill="none" xmlns="http://www.w3.org/2000/svg">
<path fill-rule="evenodd" clip-rule="evenodd" d="M1 4.03818C1.00007 3.26099 1.22226 2.50032 1.63989 1.84746C2.05753 1.19459 2.65288 0.677267 3.3545 0.357549C4.05613 0.037832 4.83422 -0.0706933 5.59542 0.0449956C6.35662 0.160684 7.06858 0.495673 7.64589 1.00977C8.2232 1.52386 8.64132 2.19522 8.85009 2.94328C9.05885 3.69135 9.0494 4.48434 8.82285 5.22712C8.5963 5.96989 8.16229 6.63089 7.57289 7.1308C6.98349 7.63071 6.26374 7.94829 5.5 8.04544V13.6297C5.5 13.7636 5.44732 13.892 5.35355 13.9867C5.25979 14.0814 5.13261 14.1346 5 14.1346C4.86739 14.1346 4.74021 14.0814 4.64645 13.9867C4.55268 13.892 4.5 13.7636 4.5 13.6297V8.04645C3.53296 7.92344 2.64369 7.44817 1.99921 6.70992C1.35474 5.97167 0.999422 5.02226 1 4.03818ZM3.493 12.6948C3.51469 12.8268 3.48358 12.9621 3.40651 13.071C3.32944 13.1798 3.21272 13.2534 3.082 13.2754C2.37 13.3945 1.802 13.5732 1.427 13.7731C1.28924 13.84 1.16405 13.9305 1.057 14.0407C1.0328 14.0673 1.0135 14.0981 1 14.1315V14.1346L1.002 14.1426C1.00593 14.1544 1.01131 14.1656 1.018 14.176C1.05747 14.2344 1.1065 14.2856 1.163 14.3274C1.328 14.4587 1.598 14.6 1.976 14.7262C2.727 14.9786 3.796 15.1442 5 15.1442C6.204 15.1442 7.273 14.9796 8.024 14.7262C8.402 14.599 8.672 14.4587 8.837 14.3274C8.89383 14.2857 8.9432 14.2344 8.983 14.176C8.98933 14.1655 8.99437 14.1543 8.998 14.1426L9 14.1346V14.1305C8.9865 14.0971 8.9672 14.0663 8.943 14.0397C8.83589 13.9299 8.71069 13.8397 8.573 13.7731C8.197 13.5732 7.63 13.3945 6.918 13.2754C6.85168 13.2663 6.78783 13.2439 6.73025 13.2094C6.67267 13.175 6.62253 13.1292 6.58279 13.0748C6.54306 13.0205 6.51454 12.9586 6.49893 12.8929C6.48332 12.8272 6.48093 12.7589 6.49191 12.6923C6.5029 12.6256 6.52702 12.5619 6.56286 12.5048C6.5987 12.4477 6.64552 12.3985 6.70055 12.36C6.75558 12.3216 6.81769 12.2947 6.88322 12.2809C6.94874 12.2671 7.01634 12.2668 7.082 12.2799C7.852 12.4081 8.534 12.611 9.039 12.8796C9.5 13.1249 10 13.5288 10 14.1346C10 14.5647 9.74 14.8938 9.456 15.121C9.166 15.3512 8.776 15.538 8.34 15.6844C7.462 15.9802 6.281 16.1538 5 16.1538C3.719 16.1538 2.538 15.9802 1.66 15.6844C1.224 15.538 0.834 15.3512 0.544 15.121C0.26 14.8938 0 14.5647 0 14.1346C0 13.5298 0.5 13.1249 0.961 12.8796C1.466 12.611 2.148 12.4081 2.918 12.2799C3.04874 12.258 3.18275 12.2894 3.29057 12.3672C3.39838 12.445 3.4712 12.5628 3.493 12.6948Z" fill="white"/>
</svg>
