<svg xmlns="http://www.w3.org/2000/svg" width="107" height="111" viewBox="0 0 107 111" fill="none">
  <path fill-rule="evenodd" clip-rule="evenodd" d="M53.5 0C23.9648 0 0 24.8606 0 55.5C0 86.1395 23.9648 111 53.5 111C82.9772 111 107 86.1395 107 55.5C107 24.8606 82.9772 0 53.5 0ZM88.8378 25.583C95.2206 33.6491 99.0506 43.9425 99.1666 55.0785C97.6579 54.7778 82.5709 51.5872 67.3682 53.5738C67.0201 52.7913 66.7299 51.9483 66.3818 51.1058C65.4532 48.8185 64.409 46.4708 63.3644 44.2436C80.1918 37.1406 87.8513 26.9073 88.8378 25.583ZM53.5 8.18656C65.1052 8.18656 75.7239 12.7012 83.7897 20.1052C82.9772 21.3091 76.072 30.8802 59.8247 37.2006C52.3394 22.9344 44.0419 11.2565 42.7652 9.45064C46.1886 8.60791 49.7864 8.18656 53.5 8.18656ZM34.0614 12.641C35.2799 14.3265 43.4035 26.0645 51.0049 40.0297C29.6513 45.929 10.7929 45.8087 8.76193 45.8087C11.7212 31.1209 21.2955 18.9013 34.0614 12.641ZM7.77549 55.5604C7.77549 55.0785 7.77549 54.5971 7.77549 54.1156C9.74837 54.1756 31.9143 54.4767 54.7185 47.3738C56.0533 50.0221 57.2717 52.7309 58.4324 55.4396C57.8519 55.6204 57.2136 55.8011 56.6334 55.9815C33.0748 63.867 20.5412 85.4169 19.4967 87.2228C12.2435 78.8558 7.77549 67.7197 7.77549 55.5604ZM53.5 102.934C42.9391 102.934 33.1909 99.2017 25.4734 92.9413C26.2858 91.1959 35.5698 72.6557 61.3334 63.3255C61.4494 63.2651 61.5076 63.2651 61.6236 63.2051C68.0644 80.4809 70.6758 94.9879 71.372 99.1414C65.8595 101.609 59.8247 102.934 53.5 102.934ZM78.9734 94.8075C78.5092 91.9181 76.072 78.0732 70.0954 61.0379C84.428 58.6902 96.9614 62.5429 98.5283 63.0848C96.5555 76.2674 89.244 87.6442 78.9734 94.8075Z" fill="white" fill-opacity="0.5"/>
</svg>