<svg xmlns="http://www.w3.org/2000/svg" width="125" height="125" viewBox="0 0 125 125" fill="none">
  <path d="M75.5207 52.0833C71.1978 52.0833 67.7082 48.5937 67.7082 44.2708V18.2292C67.7082 13.9062 71.1978 10.4167 75.5207 10.4167C79.8436 10.4167 83.3332 13.9062 83.3332 18.2292V44.2708C83.3332 48.5937 79.8436 52.0833 75.5207 52.0833Z" stroke="white" stroke-opacity="0.5" stroke-width="2" stroke-linecap="round" stroke-linejoin="round"/>
  <path d="M106.771 52.0833H98.9582V44.2708C98.9582 39.9479 102.448 36.4583 106.771 36.4583C111.094 36.4583 114.583 39.9479 114.583 44.2708C114.583 48.5937 111.094 52.0833 106.771 52.0833Z" stroke="white" stroke-opacity="0.5" stroke-width="2" stroke-linecap="round" stroke-linejoin="round"/>
  <path d="M49.479 72.9167C53.8019 72.9167 57.2915 76.4062 57.2915 80.7292V106.771C57.2915 111.094 53.8019 114.583 49.479 114.583C45.1561 114.583 41.6665 111.094 41.6665 106.771V80.7292C41.6665 76.4062 45.1561 72.9167 49.479 72.9167Z" stroke="white" stroke-opacity="0.5" stroke-width="2" stroke-linecap="round" stroke-linejoin="round"/>
  <path d="M18.229 72.9167H26.0415V80.7292C26.0415 85.0521 22.5519 88.5417 18.229 88.5417C13.9061 88.5417 10.4165 85.0521 10.4165 80.7292C10.4165 76.4062 13.9061 72.9167 18.229 72.9167Z" stroke="white" stroke-opacity="0.5" stroke-width="2" stroke-linecap="round" stroke-linejoin="round"/>
  <path d="M72.9165 75.5208C72.9165 71.1979 76.4061 67.7083 80.729 67.7083H106.771C111.094 67.7083 114.583 71.1979 114.583 75.5208C114.583 79.8437 111.094 83.3333 106.771 83.3333H80.729C76.4061 83.3333 72.9165 79.8437 72.9165 75.5208Z" stroke="white" stroke-opacity="0.5" stroke-width="2" stroke-linecap="round" stroke-linejoin="round"/>
  <path d="M80.729 98.9583H72.9165V106.771C72.9165 111.094 76.4061 114.583 80.729 114.583C85.0519 114.583 88.5415 111.094 88.5415 106.771C88.5415 102.448 85.0519 98.9583 80.729 98.9583Z" stroke="white" stroke-opacity="0.5" stroke-width="2" stroke-linecap="round" stroke-linejoin="round"/>
  <path d="M52.0832 49.4792C52.0832 45.1562 48.5936 41.6667 44.2707 41.6667H18.229C13.9061 41.6667 10.4165 45.1562 10.4165 49.4792C10.4165 53.8021 13.9061 57.2917 18.229 57.2917H44.2707C48.5936 57.2917 52.0832 53.8021 52.0832 49.4792Z" stroke="white" stroke-opacity="0.5" stroke-width="2" stroke-linecap="round" stroke-linejoin="round"/>
  <path d="M44.2707 26.0417H52.0832V18.2292C52.0832 13.9062 48.5936 10.4167 44.2707 10.4167C39.9478 10.4167 36.4582 13.9062 36.4582 18.2292C36.4582 22.5521 39.9478 26.0417 44.2707 26.0417Z" stroke="white" stroke-opacity="0.5" stroke-width="2" stroke-linecap="round" stroke-linejoin="round"/>
</svg>