<svg width="82" height="82" viewBox="0 0 82 82" fill="none" xmlns="http://www.w3.org/2000/svg">
<path d="M41 79C61.9868 79 79 61.9868 79 41C79 20.0132 61.9868 3 41 3C20.0132 3 3 20.0132 3 41C3 61.9868 20.0132 79 41 79Z" stroke="black" stroke-width="5" stroke-miterlimit="10" stroke-linecap="round" stroke-linejoin="round"/>
<path d="M40.9993 50.7521C29.2294 50.7521 19.1409 57.4777 14.0967 67.5662C20.8223 74.6282 30.5746 78.6636 40.9993 78.6636C51.4241 78.6636 61.1763 74.2919 67.902 67.5662C62.8577 57.814 52.7692 50.7521 40.9993 50.7521Z" stroke="black" stroke-width="5" stroke-miterlimit="10" stroke-linecap="round" stroke-linejoin="round"/>
<path d="M41.0007 42.009C47.6868 42.009 53.1069 36.5888 53.1069 29.9028C53.1069 23.2167 47.6868 17.7966 41.0007 17.7966C34.3147 17.7966 28.8945 23.2167 28.8945 29.9028C28.8945 36.5888 34.3147 42.009 41.0007 42.009Z" stroke="black" stroke-width="5" stroke-miterlimit="10" stroke-linecap="round" stroke-linejoin="round"/>
</svg>
